<svg width="79" height="81" viewBox="0 0 79 81" fill="none" xmlns="http://www.w3.org/2000/svg">
<g clip-path="url(#clip0_224_6)">
<path fill-rule="evenodd" clip-rule="evenodd" d="M39.5 70.875C55.8612 70.875 69.125 57.2754 69.125 40.5C69.125 23.7246 55.8612 10.125 39.5 10.125C23.1388 10.125 9.87501 23.7246 9.87501 40.5C9.87501 57.2754 23.1388 70.875 39.5 70.875ZM39.5 74.25C57.6799 74.25 72.4167 59.1401 72.4167 40.5C72.4167 21.8599 57.6799 6.75 39.5 6.75C21.3201 6.75 6.58334 21.8599 6.58334 40.5C6.58334 59.1401 21.3201 74.25 39.5 74.25Z" fill="#0093C1"/>
<path d="M19.75 60.1256C19.75 58.3825 21.0206 56.9093 22.7125 56.7169C35.4101 55.2758 43.6475 55.4057 56.3171 56.749C56.9498 56.8171 57.5494 57.0726 58.0428 57.4844C58.5361 57.8962 58.9018 58.4464 59.0953 59.0678C59.2887 59.6892 59.3014 60.3549 59.1319 60.9835C58.9623 61.6122 58.6179 62.1767 58.1407 62.608C43.1883 75.9713 34.6431 75.7873 20.8033 62.6215C20.1285 61.9802 19.75 61.0673 19.75 60.1256Z" fill="#0093C1"/>
<path fill-rule="evenodd" clip-rule="evenodd" d="M56.1476 58.4263C43.5784 57.0932 35.4595 56.9683 22.8919 58.3942C22.4782 58.4437 22.0968 58.6478 21.8208 58.9676C21.5447 59.2874 21.3934 59.7003 21.3958 60.1273C21.3958 60.6099 21.5917 61.0672 21.9225 61.3845C28.7823 67.9084 33.9799 70.8564 39.0606 70.875C44.1593 70.8936 49.6367 67.9691 57.0594 61.3372C57.2952 61.122 57.465 60.8412 57.548 60.529C57.6311 60.2167 57.6239 59.8864 57.5273 59.5782C57.4308 59.2701 57.2489 58.9973 57.004 58.7931C56.7591 58.5889 56.4615 58.4604 56.1476 58.4263ZM22.5315 55.0395C35.3624 53.5832 43.7199 53.7148 56.4883 55.0699C57.4401 55.1717 58.3422 55.5559 59.0844 56.1754C59.8265 56.7949 60.3763 57.6228 60.6666 58.5577C60.9569 59.4927 60.975 60.4941 60.7187 61.4395C60.4624 62.3848 59.9429 63.233 59.2237 63.8803C51.694 70.6101 45.4233 74.2753 39.0507 74.25C32.6599 74.2264 26.6658 70.4987 19.6858 63.8584C19.1861 63.3811 18.7877 62.8033 18.5155 62.161C18.2434 61.5188 18.1034 60.8259 18.1042 60.1256C18.1018 58.8675 18.5522 57.6526 19.3691 56.7138C20.186 55.775 21.312 55.1799 22.5315 55.0395Z" fill="#0093C1"/>
<path d="M52.6667 33.75C52.6667 37.3304 51.2795 40.7642 48.8103 43.2959C46.341 45.8277 42.992 47.25 39.5 47.25C36.008 47.25 32.659 45.8277 30.1898 43.2959C27.7205 40.7642 26.3333 37.3304 26.3333 33.75C26.3333 30.1696 27.7205 26.7358 30.1898 24.2041C32.659 21.6723 36.008 20.25 39.5 20.25C42.992 20.25 46.341 21.6723 48.8103 24.2041C51.2795 26.7358 52.6667 30.1696 52.6667 33.75Z" fill="#0093C1"/>
<path fill-rule="evenodd" clip-rule="evenodd" d="M39.5 43.875C42.119 43.875 44.6308 42.8083 46.4827 40.9095C48.3346 39.0107 49.375 36.4353 49.375 33.75C49.375 31.0647 48.3346 28.4894 46.4827 26.5905C44.6308 24.6917 42.119 23.625 39.5 23.625C36.881 23.625 34.3693 24.6917 32.5173 26.5905C30.6654 28.4894 29.625 31.0647 29.625 33.75C29.625 36.4353 30.6654 39.0107 32.5173 40.9095C34.3693 42.8083 36.881 43.875 39.5 43.875ZM39.5 47.25C42.992 47.25 46.341 45.8277 48.8103 43.2959C51.2795 40.7642 52.6667 37.3304 52.6667 33.75C52.6667 30.1696 51.2795 26.7358 48.8103 24.2041C46.341 21.6723 42.992 20.25 39.5 20.25C36.008 20.25 32.659 21.6723 30.1898 24.2041C27.7205 26.7358 26.3333 30.1696 26.3333 33.75C26.3333 37.3304 27.7205 40.7642 30.1898 43.2959C32.659 45.8277 36.008 47.25 39.5 47.25Z" fill="#0093C1"/>
<path d="M81.502 6.94C81.5955 7.03372 81.6479 7.16066 81.6479 7.293C81.6479 7.42533 81.5955 7.55227 81.502 7.646L80.459 8.69L78.459 6.69L79.502 5.646C79.5958 5.55226 79.7229 5.4996 79.8555 5.4996C79.9881 5.4996 80.1153 5.55226 80.209 5.646L81.502 6.939V6.94ZM79.752 9.396L77.752 7.396L70.939 14.21C70.884 14.265 70.8426 14.3321 70.818 14.406L70.013 16.82C69.9984 16.864 69.9963 16.9112 70.007 16.9563C70.0177 17.0014 70.0407 17.0427 70.0735 17.0755C70.1063 17.1083 70.1476 17.1313 70.1927 17.142C70.2378 17.1527 70.285 17.1506 70.329 17.136L72.743 16.331C72.8168 16.3068 72.8839 16.2657 72.939 16.211L79.752 9.396Z" fill="#0093C1"/>
<path fill-rule="evenodd" clip-rule="evenodd" d="M67 18.5C67 18.8978 67.158 19.2794 67.4393 19.5607C67.7206 19.842 68.1022 20 68.5 20H79.5C79.8978 20 80.2794 19.842 80.5607 19.5607C80.842 19.2794 81 18.8978 81 18.5V12.5C81 12.3674 80.9473 12.2402 80.8536 12.1464C80.7598 12.0527 80.6326 12 80.5 12C80.3674 12 80.2402 12.0527 80.1464 12.1464C80.0527 12.2402 80 12.3674 80 12.5V18.5C80 18.6326 79.9473 18.7598 79.8536 18.8536C79.7598 18.9473 79.6326 19 79.5 19H68.5C68.3674 19 68.2402 18.9473 68.1464 18.8536C68.0527 18.7598 68 18.6326 68 18.5V7.5C68 7.36739 68.0527 7.24021 68.1464 7.14645C68.2402 7.05268 68.3674 7 68.5 7H75C75.1326 7 75.2598 6.94732 75.3536 6.85355C75.4473 6.75979 75.5 6.63261 75.5 6.5C75.5 6.36739 75.4473 6.24021 75.3536 6.14645C75.2598 6.05268 75.1326 6 75 6H68.5C68.1022 6 67.7206 6.15804 67.4393 6.43934C67.158 6.72064 67 7.10218 67 7.5V18.5Z" fill="#0093C1"/>
</g>
<defs>
<clipPath id="clip0_224_6">
<rect width="79" height="81" fill="white"/>
</clipPath>
</defs>
</svg>
