<svg width="25" height="26" viewBox="0 0 25 26" fill="none" xmlns="http://www.w3.org/2000/svg">
<path d="M24.4744 17.951C24.3665 17.835 24.2604 17.7189 24.1563 17.6069C22.7253 16.0625 21.8595 15.1305 21.8595 10.7587C21.8595 8.49527 21.2525 6.63812 20.0563 5.24527C19.1742 4.21629 17.9819 3.43571 16.4103 2.85884C16.3901 2.8488 16.372 2.83564 16.3569 2.81996C15.7917 1.13112 14.2448 0 12.5002 0C10.7555 0 9.20932 1.13112 8.64404 2.81821C8.62895 2.83332 8.61114 2.84607 8.59135 2.85594C4.92387 4.20295 3.14152 6.78728 3.14152 10.7569C3.14152 15.1305 2.27701 16.0625 0.844628 17.6051C0.74055 17.7171 0.634519 17.8309 0.526537 17.9493C0.247606 18.2494 0.0708808 18.6145 0.0172752 19.0015C-0.0363304 19.3884 0.035428 19.7809 0.224058 20.1326C0.625412 20.8871 1.48081 21.3554 2.4572 21.3554H22.5503C23.5221 21.3554 24.3717 20.8876 24.7743 20.1367C24.9638 19.7849 25.0362 19.392 24.983 19.0047C24.9299 18.6173 24.7534 18.2516 24.4744 17.951ZM12.5002 26C13.4401 25.9993 14.3624 25.7717 15.1691 25.3412C15.9758 24.9107 16.6369 24.2935 17.0822 23.555C17.1032 23.5196 17.1136 23.4799 17.1123 23.4399C17.1111 23.3999 17.0982 23.3608 17.075 23.3265C17.0519 23.2923 17.0191 23.2639 16.9801 23.2442C16.941 23.2246 16.8968 23.2142 16.852 23.2143H8.14966C8.10473 23.2141 8.06052 23.2244 8.02135 23.244C7.98217 23.2636 7.94936 23.292 7.9261 23.3263C7.90285 23.3606 7.88995 23.3997 7.88866 23.4398C7.88737 23.4798 7.89773 23.5195 7.91874 23.555C8.36402 24.2934 9.025 24.9106 9.83158 25.3411C10.6382 25.7715 11.5603 25.9992 12.5002 26Z" fill="#0093C1"/>
</svg>
