<svg width="217" height="180" viewBox="0 0 217 180" fill="none" xmlns="http://www.w3.org/2000/svg">
<path d="M83.8216 168.231L166.068 179.492C167.755 179.707 169.466 179.336 170.895 178.447C172.323 177.558 173.374 176.208 173.86 174.64L216.421 21.5816C217.286 18.4106 215.183 15.6224 211.694 15.3477L127.828 8.84753C126.17 8.76924 124.533 9.22888 123.18 10.1527C121.826 11.0764 120.835 12.4107 120.365 13.9412L79.5274 161.939C79.3155 162.626 79.2619 163.349 79.3705 164.058C79.479 164.767 79.747 165.444 80.1558 166.043C80.5646 166.642 81.1044 167.148 81.7375 167.526C82.3706 167.904 83.0818 168.145 83.8216 168.231Z" fill="#231F20"/>
<path d="M166.977 180C166.644 179.998 166.312 179.976 165.982 179.933L83.735 168.664C82.9396 168.57 82.1745 168.313 81.4918 167.909C80.8091 167.505 80.2248 166.965 79.7785 166.325C79.3348 165.668 79.0427 164.926 78.9217 164.151C78.8008 163.376 78.8538 162.585 79.0772 161.831L119.915 13.858C120.414 12.2324 121.466 10.8146 122.902 9.83093C124.338 8.84729 126.075 8.35456 127.837 8.43144L211.702 14.9316C212.553 14.9803 213.381 15.2084 214.129 15.5997C214.877 15.9909 215.527 16.5358 216.031 17.1955C216.495 17.8442 216.803 18.5843 216.931 19.3618C217.06 20.1393 217.007 20.9346 216.776 21.6898L174.215 174.748C173.752 176.253 172.799 177.575 171.496 178.52C170.193 179.466 168.61 179.984 166.977 180ZM83.8649 167.84L166.112 179.109C167.697 179.313 169.307 178.966 170.651 178.132C171.995 177.297 172.985 176.03 173.445 174.557L215.971 21.5067C216.171 20.869 216.22 20.196 216.114 19.5377C216.007 18.8793 215.748 18.2523 215.356 17.7032C214.923 17.1379 214.364 16.6728 213.719 16.3416C213.075 16.0105 212.363 15.8216 211.633 15.7889L127.767 9.26373C126.208 9.185 124.668 9.61482 123.395 10.4835C122.122 11.3521 121.192 12.6087 120.755 14.0494L79.943 162.048C79.7496 162.687 79.7013 163.359 79.8014 164.018C79.9015 164.677 80.1476 165.308 80.523 165.868C80.9043 166.408 81.4013 166.863 81.9807 167.203C82.56 167.543 83.2084 167.761 83.8822 167.84H83.8649Z" fill="#231F20"/>
<path d="M78.4712 159.809L160.718 171.07C162.404 171.281 164.114 170.909 165.541 170.02C166.969 169.131 168.021 167.783 168.51 166.217L211.062 13.1588C211.927 9.9878 209.824 7.19962 206.335 6.92497L122.452 0.424771C120.793 0.347524 119.155 0.807444 117.801 1.73092C116.446 2.6544 115.453 3.98804 114.98 5.5184L74.1684 153.492C73.952 154.181 73.8952 154.907 74.0021 155.619C74.109 156.332 74.3769 157.013 74.7871 157.615C75.1972 158.217 75.7396 158.726 76.3761 159.105C77.0126 159.484 77.7277 159.724 78.4712 159.809Z" fill="white"/>
<path d="M161.627 171.561C161.294 171.559 160.961 171.537 160.631 171.494L78.3846 160.225C77.5892 160.131 76.8241 159.873 76.1414 159.47C75.4588 159.066 74.8744 158.526 74.4281 157.886C73.9839 157.229 73.6915 156.487 73.5705 155.712C73.4495 154.937 73.5029 154.145 73.7269 153.392L114.573 5.41852C115.073 3.79448 116.126 2.37869 117.562 1.39784C118.998 0.41699 120.735 -0.0721907 122.495 0.00862103L206.343 6.50882C207.201 6.55207 208.038 6.77754 208.794 7.16899C209.55 7.56043 210.206 8.10813 210.715 8.77265C211.177 9.42241 211.483 10.1624 211.612 10.9395C211.741 11.7167 211.689 12.5115 211.46 13.267L168.899 166.325C168.431 167.832 167.472 169.155 166.162 170.097C164.853 171.04 163.263 171.553 161.627 171.561ZM121.949 0.824266C120.476 0.863484 119.054 1.3489 117.885 2.21127C116.716 3.07364 115.86 4.26891 115.439 5.62659L74.5926 153.6C74.3992 154.239 74.3509 154.911 74.451 155.57C74.5511 156.229 74.7972 156.86 75.1727 157.42C75.554 157.96 76.0509 158.415 76.6303 158.755C77.2097 159.096 77.858 159.313 78.5318 159.392L160.779 170.662C162.36 170.859 163.963 170.509 165.302 169.675C166.64 168.841 167.627 167.577 168.086 166.109L210.62 13.059C210.819 12.421 210.867 11.7484 210.761 11.0903C210.654 10.4322 210.396 9.80529 210.005 9.25538C209.571 8.6891 209.011 8.2233 208.365 7.89209C207.72 7.56088 207.005 7.37263 206.274 7.34111L122.417 0.840913L121.949 0.824266Z" fill="#231F20"/>
<path d="M202.915 23.2296L117.058 16.0802L84.1159 135.481L168.718 146.292L202.915 23.2296Z" fill="#68E1FD"/>
<path d="M165.255 129.838C165.172 129.838 165.092 129.816 165.022 129.773C164.953 129.73 164.899 129.669 164.865 129.596L147.55 94.3988C147.525 94.3491 147.511 94.2952 147.508 94.2402C147.505 94.1852 147.513 94.1301 147.533 94.0782C147.552 94.0264 147.582 93.9787 147.62 93.938C147.659 93.8973 147.706 93.8644 147.758 93.8412C147.861 93.7956 147.979 93.791 148.086 93.8284C148.193 93.8658 148.28 93.9421 148.329 94.0409L165.644 129.247C165.669 129.296 165.683 129.349 165.686 129.404C165.689 129.458 165.68 129.512 165.661 129.564C165.642 129.615 165.612 129.662 165.573 129.702C165.535 129.742 165.488 129.774 165.436 129.796C165.379 129.822 165.317 129.836 165.255 129.838Z" fill="white"/>
<path d="M112.452 158.918L128.503 161.09C129.523 161.211 130.554 160.979 131.412 160.436C132.27 159.894 132.899 159.075 133.187 158.127L134.78 152.376C134.913 151.94 134.945 151.48 134.873 151.03C134.8 150.58 134.625 150.151 134.361 149.774C134.096 149.396 133.749 149.08 133.342 148.846C132.936 148.613 132.481 148.468 132.01 148.423L115.941 146.325C114.931 146.219 113.915 146.458 113.07 147C112.225 147.541 111.605 148.352 111.318 149.288L109.734 154.99C109.6 155.421 109.567 155.876 109.637 156.321C109.706 156.766 109.877 157.191 110.136 157.566C110.395 157.941 110.737 158.256 111.138 158.49C111.538 158.723 111.987 158.87 112.452 158.918Z" fill="white"/>
<path d="M129.04 161.573C128.84 161.576 128.64 161.562 128.443 161.531L112.391 159.367C111.866 159.309 111.359 159.141 110.908 158.875C110.457 158.609 110.071 158.252 109.779 157.828C109.486 157.404 109.293 156.923 109.213 156.42C109.134 155.917 109.17 155.403 109.318 154.915L110.894 149.214C111.209 148.178 111.894 147.283 112.829 146.686C113.763 146.09 114.887 145.829 116.002 145.951L132.07 148.04C132.605 148.101 133.119 148.271 133.579 148.54C134.039 148.808 134.434 149.168 134.737 149.596C135.026 150.024 135.216 150.505 135.295 151.009C135.374 151.513 135.34 152.027 135.196 152.518L133.62 158.244C133.332 159.2 132.731 160.04 131.905 160.64C131.08 161.24 130.075 161.567 129.04 161.573ZM112.513 158.544L128.564 160.707C129.477 160.814 130.401 160.606 131.17 160.12C131.938 159.634 132.503 158.901 132.763 158.052L134.364 152.301C134.475 151.924 134.501 151.529 134.442 151.142C134.382 150.755 134.238 150.384 134.018 150.054C133.782 149.727 133.476 149.451 133.121 149.246C132.766 149.041 132.369 148.911 131.958 148.864L115.88 146.775C114.976 146.675 114.063 146.886 113.304 147.37C112.545 147.854 111.989 148.581 111.734 149.422L110.158 155.131C110.04 155.506 110.009 155.9 110.068 156.288C110.127 156.675 110.274 157.045 110.499 157.371C110.724 157.697 111.021 157.971 111.369 158.174C111.717 158.376 112.108 158.503 112.513 158.544Z" fill="#E6E7E8"/>
<path d="M177.514 12.9674L152.987 10.9948C152.93 10.9899 152.875 10.9743 152.824 10.9488C152.774 10.9234 152.729 10.8886 152.692 10.8465C152.656 10.8044 152.628 10.7557 152.611 10.7033C152.594 10.651 152.588 10.5959 152.593 10.5412C152.598 10.4866 152.614 10.4335 152.641 10.3848C152.667 10.3362 152.703 10.2931 152.747 10.258C152.791 10.2228 152.842 10.1963 152.896 10.1799C152.951 10.1635 153.008 10.1576 153.065 10.1626L177.583 12.1268C177.698 12.1268 177.808 12.1706 177.889 12.2486C177.97 12.3267 178.016 12.4325 178.016 12.5429C178.016 12.6533 177.97 12.7591 177.889 12.8372C177.808 12.9152 177.698 12.9591 177.583 12.9591L177.514 12.9674Z" fill="#D1D3D4"/>
<path d="M149.584 10.7202L146.329 10.4622C146.273 10.4581 146.217 10.443 146.167 10.418C146.117 10.393 146.072 10.3586 146.036 10.3166C145.999 10.2747 145.972 10.2263 145.955 10.1741C145.939 10.1219 145.934 10.067 145.94 10.0128C145.951 9.90311 146.005 9.80185 146.093 9.7304C146.18 9.65896 146.293 9.62292 146.407 9.62991L149.654 9.89625C149.768 9.89625 149.879 9.94009 149.96 10.0181C150.041 10.0962 150.087 10.202 150.087 10.3124C150.087 10.4228 150.041 10.5286 149.96 10.6067C149.879 10.6847 149.768 10.7285 149.654 10.7285L149.584 10.7202Z" fill="#D1D3D4"/>
<path d="M173.67 89.1137C173.67 89.1137 184.215 55.6889 175.072 48.2815L130.33 43.1047C130.33 43.1047 122.659 50.7867 121.551 56.6877C120.443 62.5886 111.162 75.1562 114.625 82.6551L173.67 89.1137Z" fill="#231F20"/>
<path d="M173.67 89.5299H173.626L114.573 83.063C114.499 83.0543 114.428 83.0275 114.368 82.9853C114.307 82.9431 114.259 82.8868 114.227 82.8216C111.829 77.6115 115.335 70.0959 118.157 64.0535C119.551 61.0739 120.755 58.4937 121.101 56.6128C122.218 50.6536 129.672 43.1296 129.992 42.8134C130.039 42.7669 130.096 42.7315 130.159 42.7098C130.222 42.6882 130.289 42.6809 130.356 42.6885L175.098 47.8737C175.18 47.8845 175.258 47.9161 175.323 47.9653C184.578 55.4559 174.458 87.8653 174.059 89.2386C174.033 89.3195 173.982 89.3908 173.912 89.4429C173.842 89.4949 173.758 89.5253 173.67 89.5299ZM114.954 82.264L173.358 88.6643C174.414 85.1853 183.063 55.5891 174.89 48.7143L130.494 43.5708C129.438 44.6694 122.962 51.5275 121.975 56.7959C121.603 58.7767 120.382 61.3984 118.971 64.428C116.305 70.1958 112.902 77.3951 114.954 82.264Z" fill="#231F20"/>
<path d="M177.895 90.0959H177.834L103.059 80.0085C102.947 79.992 102.846 79.934 102.778 79.8468C102.71 79.7597 102.68 79.6504 102.695 79.5424C102.71 79.4332 102.77 79.3342 102.861 79.2671C102.951 79.2 103.066 79.1703 103.18 79.1845L177.955 89.2719C178.069 89.2884 178.172 89.3473 178.242 89.436C178.312 89.5247 178.342 89.6361 178.327 89.7463C178.309 89.844 178.256 89.9325 178.177 89.9964C178.098 90.0603 177.998 90.0955 177.895 90.0959Z" fill="#231F20"/>
<path d="M175.072 48.2815C175.072 48.2815 170.536 48.8808 167.757 57.9527C163.506 71.8354 157.904 101.132 154.363 112.152C149.169 128.182 135.317 130.462 135.317 130.462L76.7483 122.297C76.7483 122.297 100.583 114.357 104.608 100.857C108.842 86.6335 114.703 59.7588 116.287 53.758C119.084 43.1296 130.356 43.1296 130.356 43.1296L175.072 48.2815Z" fill="white"/>
<path d="M135.291 130.853H135.23L76.6618 122.688C76.5654 122.674 76.4767 122.63 76.4093 122.562C76.342 122.494 76.2998 122.407 76.2895 122.314C76.28 122.221 76.303 122.129 76.3548 122.05C76.4066 121.972 76.4842 121.912 76.5752 121.881C76.8176 121.806 100.254 113.849 104.167 100.716C107.102 90.8532 110.868 74.7234 113.353 64.0451C114.469 59.2594 115.352 55.4725 115.837 53.6332C118.686 42.8134 130.217 42.6885 130.33 42.6885L175.124 47.8737C175.228 47.8858 175.324 47.9338 175.394 48.0088C175.464 48.0838 175.504 48.1807 175.505 48.2815C175.504 48.382 175.467 48.479 175.398 48.5552C175.33 48.6314 175.236 48.6819 175.133 48.6977C175.064 48.6977 170.804 49.455 168.207 58.0693C166.051 65.0938 163.566 76.0468 161.151 86.6418C158.796 97.0205 156.562 106.825 154.814 112.276C152.112 120.674 147.022 125.277 143.16 127.657C140.794 129.181 138.151 130.265 135.369 130.853H135.291ZM78.4366 122.097L135.282 130.021C136.295 129.821 149.134 127.066 153.948 112.027C155.679 106.609 157.922 96.8208 160.276 86.4671C162.683 75.8553 165.185 64.8857 167.341 57.8362C169.168 51.8853 171.748 49.5133 173.401 48.5062L130.278 43.5125C129.88 43.5125 119.361 43.654 116.677 53.8412C116.201 55.6639 115.318 59.4426 114.201 64.2282C111.708 74.9149 107.942 91.0613 104.998 100.949C102.877 108.048 95.3275 113.583 89.3624 116.971C85.8593 118.94 82.2071 120.654 78.4366 122.097Z" fill="#231F20"/>
<path d="M146.918 113.125H146.866L138.944 112.293C138.831 112.28 138.727 112.225 138.656 112.14C138.584 112.054 138.551 111.944 138.563 111.835C138.569 111.781 138.585 111.728 138.612 111.68C138.639 111.632 138.676 111.589 138.721 111.555C138.765 111.521 138.816 111.496 138.871 111.481C138.926 111.466 138.983 111.462 139.039 111.469L146.97 112.301C147.083 112.314 147.187 112.369 147.258 112.455C147.33 112.541 147.363 112.65 147.351 112.759C147.336 112.86 147.285 112.952 147.205 113.02C147.126 113.087 147.024 113.124 146.918 113.125Z" fill="#D1D3D4"/>
<path d="M132.555 111.561H132.503L108.79 108.972C108.676 108.96 108.573 108.905 108.501 108.819C108.43 108.733 108.397 108.624 108.409 108.514C108.414 108.46 108.431 108.407 108.458 108.359C108.485 108.311 108.522 108.269 108.566 108.234C108.611 108.2 108.662 108.175 108.717 108.16C108.771 108.145 108.829 108.141 108.885 108.148L132.607 110.728C132.722 110.735 132.829 110.785 132.905 110.868C132.982 110.951 133.021 111.059 133.014 111.169C133.007 111.28 132.955 111.383 132.869 111.456C132.783 111.53 132.67 111.567 132.555 111.561Z" fill="#D1D3D4"/>
<path d="M139.836 121.823H139.784L132.503 120.991C132.446 120.984 132.391 120.967 132.341 120.94C132.291 120.913 132.248 120.877 132.212 120.833C132.177 120.79 132.151 120.741 132.135 120.688C132.12 120.635 132.115 120.579 132.122 120.524C132.129 120.47 132.147 120.417 132.175 120.369C132.203 120.321 132.241 120.279 132.286 120.245C132.331 120.211 132.382 120.186 132.437 120.171C132.492 120.156 132.55 120.152 132.607 120.158L139.888 120.991C139.945 120.994 140 121.008 140.052 121.032C140.103 121.056 140.149 121.089 140.186 121.13C140.224 121.171 140.253 121.219 140.272 121.27C140.29 121.322 140.298 121.377 140.295 121.432C140.291 121.486 140.277 121.54 140.252 121.589C140.227 121.638 140.192 121.682 140.15 121.719C140.107 121.755 140.057 121.783 140.004 121.801C139.95 121.819 139.893 121.826 139.836 121.823Z" fill="#D1D3D4"/>
<path d="M124.434 120.142H124.382L101.708 117.645C101.593 117.633 101.488 117.577 101.416 117.49C101.344 117.404 101.31 117.293 101.323 117.183C101.335 117.072 101.393 116.971 101.483 116.902C101.573 116.832 101.689 116.8 101.803 116.812L124.486 119.309C124.6 119.322 124.703 119.377 124.775 119.463C124.846 119.548 124.879 119.658 124.867 119.767C124.854 119.869 124.804 119.964 124.724 120.033C124.644 120.102 124.541 120.14 124.434 120.142Z" fill="#D1D3D4"/>
<path d="M135.291 130.437C131.865 127.394 129.23 123.62 127.598 119.419C125.967 115.218 125.384 110.708 125.897 106.251L64.4286 95.589C64.4286 95.589 69.7011 115.373 76.7137 122.272L135.291 130.437Z" fill="white"/>
<path d="M135.291 130.853H135.23L76.6618 122.688C76.5667 122.673 76.479 122.629 76.4107 122.564C69.3981 115.664 64.2295 96.5045 64.0131 95.6889C63.9952 95.6218 63.9953 95.5515 64.0135 95.4845C64.0317 95.4175 64.0673 95.3561 64.117 95.306C64.166 95.253 64.2284 95.213 64.2981 95.1897C64.3678 95.1663 64.4425 95.1606 64.5152 95.1728L125.984 105.834C126.09 105.856 126.184 105.915 126.248 106C126.312 106.084 126.341 106.188 126.33 106.292C125.845 110.681 126.427 115.119 128.032 119.254C129.637 123.39 132.22 127.11 135.576 130.121C135.649 130.173 135.702 130.247 135.727 130.33C135.753 130.414 135.75 130.503 135.719 130.585C135.688 130.667 135.631 130.737 135.555 130.786C135.48 130.834 135.39 130.857 135.299 130.853H135.291ZM76.9302 121.881L134.001 129.838C130.904 126.792 128.534 123.135 127.052 119.122C125.571 115.108 125.014 110.833 125.421 106.592L65.026 96.1133C65.9957 99.5174 70.8266 115.747 76.9302 121.881Z" fill="#231F20"/>
<path d="M159.636 61.257H159.593L121.499 57.0955C121.442 57.0905 121.386 57.0742 121.335 57.0477C121.285 57.0212 121.24 56.985 121.204 56.9413C121.169 56.8977 121.143 56.8476 121.128 56.7939C121.113 56.7403 121.11 56.6843 121.118 56.6294C121.131 56.5203 121.189 56.4206 121.278 56.352C121.367 56.2834 121.481 56.2515 121.595 56.2632L159.688 60.4247C159.803 60.4302 159.91 60.4793 159.988 60.5613C160.065 60.6432 160.105 60.7513 160.099 60.8616C160.093 60.972 160.042 61.0757 159.957 61.1498C159.872 61.2239 159.759 61.2625 159.644 61.257H159.636Z" fill="#D1D3D4"/>
<path d="M158.043 70.6785H157.991L150.84 69.8961C150.783 69.8896 150.728 69.8723 150.678 69.8453C150.628 69.8184 150.584 69.7822 150.549 69.7389C150.513 69.6957 150.487 69.6461 150.472 69.5931C150.456 69.5401 150.452 69.4847 150.459 69.43C150.466 69.3754 150.484 69.3226 150.512 69.2746C150.54 69.2266 150.577 69.1844 150.622 69.1504C150.667 69.1164 150.719 69.0913 150.774 69.0764C150.829 69.0615 150.887 69.0573 150.944 69.0638L158.086 69.8379C158.143 69.8406 158.199 69.8541 158.25 69.8775C158.302 69.9009 158.348 69.9339 158.386 69.9745C158.424 70.015 158.454 70.0625 158.473 70.114C158.492 70.1655 158.5 70.2202 158.497 70.2748C158.494 70.3295 158.48 70.383 158.456 70.4325C158.432 70.4819 158.397 70.5263 158.355 70.563C158.313 70.5997 158.264 70.6281 158.21 70.6465C158.157 70.6648 158.1 70.6729 158.043 70.6702V70.6785Z" fill="#D1D3D4"/>
<path d="M142.883 69.0222L119.958 66.5253C119.843 66.5132 119.738 66.4577 119.666 66.3711C119.594 66.2845 119.56 66.1738 119.573 66.0634C119.586 65.953 119.643 65.852 119.733 65.7826C119.824 65.7131 119.939 65.6809 120.053 65.693L142.979 68.1899C143.035 68.1932 143.091 68.2072 143.142 68.2312C143.194 68.2551 143.239 68.2885 143.277 68.3295C143.315 68.3704 143.344 68.4181 143.363 68.4699C143.381 68.5216 143.389 68.5764 143.386 68.631C143.382 68.6857 143.368 68.7392 143.343 68.7884C143.318 68.8376 143.283 68.8817 143.24 68.918C143.198 68.9543 143.148 68.9822 143.094 69.0001C143.04 69.018 142.984 69.0255 142.927 69.0222H142.883Z" fill="#D1D3D4"/>
<path d="M155.688 79.4592H155.636L143.853 78.1775C143.739 78.1629 143.635 78.106 143.564 78.0189C143.493 77.9319 143.46 77.8215 143.472 77.7114C143.487 77.6016 143.546 77.5019 143.637 77.4334C143.728 77.365 143.842 77.3333 143.957 77.3452L155.731 78.6352C155.788 78.6404 155.843 78.6564 155.893 78.6824C155.943 78.7084 155.987 78.7438 156.023 78.7865C156.058 78.8292 156.084 78.8783 156.1 78.931C156.115 78.9836 156.119 79.0387 156.112 79.093C156.1 79.1931 156.05 79.2854 155.972 79.3527C155.894 79.4201 155.793 79.4579 155.688 79.4592Z" fill="#D1D3D4"/>
<path d="M132.555 76.9373H132.503L117.56 75.2727C117.503 75.2667 117.448 75.25 117.398 75.2235C117.348 75.1971 117.304 75.1614 117.268 75.1185C117.232 75.0756 117.206 75.0263 117.19 74.9735C117.174 74.9208 117.169 74.8655 117.175 74.8108C117.181 74.7562 117.198 74.7032 117.226 74.655C117.254 74.6068 117.291 74.5643 117.335 74.53C117.38 74.4956 117.431 74.47 117.486 74.4546C117.541 74.4392 117.598 74.4344 117.655 74.4404L132.607 76.0634C132.721 76.078 132.825 76.1349 132.896 76.2219C132.967 76.309 133 76.4194 132.988 76.5295C132.983 76.6377 132.936 76.7403 132.856 76.8161C132.775 76.8919 132.668 76.9353 132.555 76.9373Z" fill="#D1D3D4"/>
<path d="M153.679 87.7738H153.627L143.801 86.6668C143.687 86.6522 143.583 86.5954 143.512 86.5083C143.441 86.4212 143.408 86.3108 143.42 86.2007C143.437 86.0918 143.497 85.9933 143.587 85.9253C143.677 85.8573 143.791 85.8248 143.905 85.8345L153.723 86.9082C153.838 86.9137 153.945 86.9628 154.022 87.0448C154.1 87.1267 154.14 87.2348 154.134 87.3451C154.128 87.4555 154.077 87.5591 153.992 87.6333C153.907 87.7074 153.794 87.746 153.679 87.7405V87.7738Z" fill="#D1D3D4"/>
<path d="M133.369 85.5599H133.317L115.543 83.6206C115.429 83.6081 115.326 83.5529 115.254 83.4672C115.183 83.3814 115.15 83.272 115.162 83.1629C115.177 83.0531 115.236 82.9534 115.327 82.8849C115.417 82.8165 115.532 82.7848 115.647 82.7967L133.412 84.7359C133.527 84.7359 133.637 84.7797 133.718 84.8578C133.799 84.9358 133.845 85.0417 133.845 85.152C133.845 85.2624 133.799 85.3683 133.718 85.4463C133.637 85.5243 133.527 85.5682 133.412 85.5682L133.369 85.5599Z" fill="#D1D3D4"/>
<path d="M151.593 96.9789L142.875 96.0301C142.761 96.0175 142.658 95.9624 142.586 95.8766C142.515 95.7909 142.482 95.6815 142.494 95.5723C142.499 95.5179 142.516 95.465 142.543 95.4169C142.57 95.3688 142.607 95.3264 142.651 95.2922C142.696 95.258 142.747 95.2328 142.801 95.218C142.856 95.2032 142.914 95.1992 142.97 95.2061L151.688 96.1549C151.803 96.1616 151.91 96.2118 151.987 96.2945C152.063 96.3772 152.102 96.4857 152.095 96.596C152.088 96.7064 152.036 96.8096 151.95 96.883C151.864 96.9564 151.751 96.9938 151.636 96.9872L151.593 96.9789Z" fill="#D1D3D4"/>
<path d="M137.438 95.4391H137.386L113.465 92.8258C113.352 92.8132 113.248 92.758 113.176 92.6723C113.105 92.5866 113.072 92.4772 113.084 92.368C113.089 92.3136 113.106 92.2607 113.133 92.2126C113.16 92.1644 113.197 92.122 113.241 92.0879C113.286 92.0537 113.337 92.0285 113.392 92.0137C113.447 91.9989 113.504 91.9949 113.56 92.0018L137.481 94.6069C137.596 94.6124 137.704 94.6615 137.781 94.7435C137.858 94.8254 137.898 94.9334 137.892 95.0438C137.887 95.1542 137.835 95.2578 137.75 95.332C137.665 95.4061 137.553 95.4447 137.438 95.4391Z" fill="#D1D3D4"/>
<path d="M149.394 104.428H149.342L138.953 103.296C138.839 103.283 138.736 103.228 138.664 103.143C138.593 103.057 138.56 102.947 138.572 102.838C138.577 102.784 138.594 102.731 138.621 102.683C138.648 102.635 138.685 102.592 138.729 102.558C138.774 102.524 138.825 102.499 138.88 102.484C138.934 102.469 138.992 102.465 139.048 102.472L149.437 103.604C149.552 103.611 149.659 103.661 149.736 103.743C149.812 103.826 149.851 103.935 149.844 104.045C149.837 104.155 149.785 104.259 149.699 104.332C149.613 104.405 149.5 104.443 149.385 104.436L149.394 104.428Z" fill="#D1D3D4"/>
<path d="M134.304 102.788L111.309 100.291C111.195 100.279 111.089 100.224 111.017 100.137C110.945 100.051 110.911 99.9399 110.924 99.8295C110.937 99.7191 110.994 99.6181 111.085 99.5486C111.175 99.4792 111.29 99.447 111.405 99.4591L134.399 101.956C134.514 101.963 134.621 102.013 134.698 102.096C134.774 102.178 134.813 102.287 134.806 102.397C134.799 102.507 134.747 102.611 134.661 102.684C134.575 102.757 134.462 102.795 134.347 102.788H134.304Z" fill="#D1D3D4"/>
<path d="M14.7313 48.7009L34.6055 89.7672C36.2513 93.168 40.4532 94.6423 43.9908 93.0601L109.543 63.7411C113.08 62.1589 114.614 58.1194 112.968 54.7186L93.0939 13.6522C91.4481 10.2514 87.2461 8.77717 83.7086 10.3594L18.1566 39.6783C14.619 41.2605 13.0855 45.3001 14.7313 48.7009Z" fill="white"/>
<path d="M41.0273 94.1574C39.5984 94.1593 38.1988 93.7685 36.9932 93.0312C35.7876 92.294 34.8263 91.2409 34.2224 89.996L14.3101 48.9307C13.4727 47.1978 13.3853 45.2162 14.0671 43.4214C14.749 41.6266 16.1442 40.1656 17.9462 39.3594L83.5013 10.0377C85.3038 9.23271 87.3651 9.14871 89.2321 9.8042C91.099 10.4597 92.6188 11.801 93.4575 13.5334L113.327 54.5986C113.743 55.456 113.979 56.3838 114.022 57.329C114.065 58.2741 113.913 59.2182 113.576 60.1071C113.239 60.996 112.724 61.8124 112.058 62.5095C111.393 63.2067 110.591 63.7709 109.699 64.17L44.144 93.4916C43.1674 93.9276 42.104 94.1548 41.0273 94.1574ZM86.6872 10.1459C85.7244 10.1466 84.7733 10.3482 83.8995 10.7369L18.3445 40.0585C16.7518 40.7724 15.5189 42.0647 14.9167 43.6518C14.3145 45.2389 14.3921 46.9908 15.1325 48.5229L35.0449 89.5965C35.7892 91.1282 37.1352 92.3135 38.7874 92.8924C40.4397 93.4713 42.2634 93.3964 43.8583 92.6843L109.379 63.3627C110.971 62.6488 112.204 61.3564 112.806 59.7693C113.409 58.1823 113.331 56.4303 112.591 54.8983L92.6783 13.8247C92.145 12.7287 91.2986 11.801 90.2379 11.1497C89.1772 10.4984 87.9458 10.1503 86.6872 10.1459Z" fill="#231F20"/>
<path d="M72.0665 30.0179L77.0807 40.3789C78.2707 42.8378 81.3089 43.9037 83.8666 42.7597L91.4965 39.3472C94.0542 38.2032 95.163 35.2825 93.973 32.8235L88.9589 22.4626C87.7689 20.0037 84.7307 18.9378 82.1729 20.0818L74.5431 23.4943C71.9853 24.6383 70.8765 27.559 72.0665 30.0179Z" fill="#68E1FD"/>
<path d="M25.1043 45.6034C23.5306 46.3073 22.8484 48.1043 23.5806 49.6171C24.3127 51.13 26.182 51.7858 27.7556 51.082L42.4422 44.5132C44.0159 43.8094 44.6981 42.0124 43.966 40.4995C43.2338 38.9866 41.3646 38.3308 39.7909 39.0347L25.1043 45.6034Z" fill="#D1D3D4"/>
<path d="M88.5261 56.5928L89.9321 59.498C90.3012 60.2607 91.2436 60.5913 92.0369 60.2365L103.089 55.2933C103.882 54.9384 104.226 54.0325 103.857 53.2698L102.451 50.3646C102.082 49.6019 101.14 49.2712 100.347 49.6261L89.2943 54.5693C88.5009 54.9242 88.157 55.8301 88.5261 56.5928Z" fill="#D1D3D4"/>
<path d="M71.6568 64.1459L73.0628 67.0512C73.4319 67.8139 74.3743 68.1445 75.1676 67.7897L86.2198 62.8464C87.0132 62.4916 87.3571 61.5857 86.988 60.823L85.582 57.9177C85.2129 57.155 84.2705 56.8244 83.4772 57.1792L72.425 62.1225C71.6316 62.4773 71.2877 63.3832 71.6568 64.1459Z" fill="#D1D3D4"/>
<path d="M54.776 71.6867L56.182 74.592C56.5511 75.3547 57.4935 75.6853 58.2868 75.3305L69.3391 70.3872C70.1324 70.0324 70.4763 69.1265 70.1072 68.3638L68.7012 65.4585C68.3321 64.6958 67.3898 64.3652 66.5964 64.72L55.5442 69.6633C54.7508 70.0181 54.4069 70.9241 54.776 71.6867Z" fill="#D1D3D4"/>
<path d="M37.9067 79.2316L39.3127 82.1368C39.6818 82.8995 40.6242 83.2301 41.4175 82.8753L52.4698 77.9321C53.2631 77.5772 53.607 76.6713 53.2379 75.9086L51.8319 73.0033C51.4628 72.2407 50.5205 71.91 49.7271 72.2649L38.6749 77.2081C37.8815 77.563 37.5376 78.4689 37.9067 79.2316Z" fill="#D1D3D4"/>
<path d="M161.004 41.723C160.931 41.7237 160.86 41.7065 160.796 41.6729C160.732 41.6394 160.679 41.5908 160.64 41.5316L149.03 24.0535C148.975 23.9609 148.959 23.8517 148.986 23.7482C149.012 23.6447 149.079 23.5549 149.172 23.4972C149.265 23.4396 149.378 23.4186 149.487 23.4385C149.596 23.4583 149.693 23.5176 149.758 23.6041L161.367 41.0822C161.429 41.1749 161.45 41.2875 161.426 41.3951C161.402 41.5028 161.334 41.5968 161.237 41.6565C161.169 41.7021 161.087 41.7255 161.004 41.723Z" fill="white"/>
<path d="M125.897 36.6461C125.817 36.6461 125.739 36.6252 125.67 36.5856C125.602 36.5461 125.545 36.4893 125.508 36.4214L119.577 25.4102C119.55 25.3623 119.534 25.3096 119.528 25.2554C119.523 25.2012 119.529 25.1465 119.546 25.0945C119.563 25.0425 119.59 24.9943 119.627 24.9528C119.664 24.9112 119.709 24.8771 119.759 24.8526C119.81 24.8265 119.865 24.8104 119.922 24.805C119.979 24.7997 120.037 24.8054 120.091 24.8216C120.146 24.8379 120.197 24.8645 120.241 24.8998C120.285 24.9351 120.321 24.9784 120.348 25.0273L126.278 36.0385C126.331 36.1371 126.341 36.2513 126.307 36.357C126.273 36.4628 126.197 36.5516 126.096 36.6045C126.033 36.6294 125.966 36.6435 125.897 36.6461Z" fill="white"/>
<path d="M29.1837 101.174L25.5562 105.177C23.2446 107.957 15.8944 106.009 9.15877 100.807C2.42319 95.6056 -1.17835 89.1637 1.15919 86.3755L4.79536 82.3722L29.1837 101.174Z" fill="white"/>
<path d="M22.1278 106.867C18.6648 106.867 13.6694 104.811 8.88174 101.132C5.84311 98.8783 3.29059 96.0767 1.36698 92.8841C-0.234665 89.996 -0.433786 87.599 0.795587 86.1175L4.44042 82.0976C4.51403 82.0167 4.61731 81.9664 4.72866 81.9571C4.84 81.9478 4.95077 81.9802 5.03779 82.0476L29.4521 100.816C29.499 100.849 29.5379 100.891 29.5663 100.94C29.5947 100.989 29.6118 101.043 29.6166 101.099C29.6261 101.213 29.5888 101.327 29.5127 101.415L25.8765 105.418C25.4085 105.919 24.8271 106.31 24.1773 106.561C23.5274 106.812 22.8263 106.917 22.1278 106.867ZM4.81269 82.9465L1.46222 86.6668C0.483912 87.8404 0.726328 89.996 2.12885 92.4929C3.99608 95.5908 6.47536 98.3079 9.42717 100.491C15.8597 105.485 23.0888 107.474 25.2186 104.927L28.5604 101.232L4.81269 82.9465Z" fill="#231F20"/>
<path d="M29.1808 101.167C31.4942 98.3898 27.9026 91.9295 21.1587 86.7373C14.4148 81.5451 7.07236 79.5872 4.75895 82.3642C2.44554 85.1411 6.03717 91.6014 12.7811 96.7936C19.525 101.986 26.8674 103.944 29.1808 101.167Z" fill="white"/>
<path d="M25.7553 102.855C22.2923 102.855 17.2882 100.799 12.5179 97.1287C9.47448 94.8775 6.91865 92.0755 4.99449 88.8807C3.39284 85.9927 3.19372 83.5957 4.43175 82.1142C5.66112 80.6327 8.14584 80.2915 11.4184 81.1654C15.0817 82.2712 18.4845 84.0553 21.4352 86.4171C28.4738 91.8353 32.0234 98.4271 29.5214 101.398C29.0511 101.902 28.4671 102.295 27.8142 102.547C27.1614 102.799 26.4571 102.905 25.7553 102.855ZM8.18913 81.5316C7.62253 81.4801 7.05113 81.5521 6.51749 81.7423C5.98386 81.9325 5.50173 82.236 5.10704 82.6302C4.11142 83.8204 4.35383 85.9594 5.76501 88.4562C7.62969 91.5534 10.106 94.2704 13.0547 96.4546C19.4872 101.448 26.725 103.437 28.8461 100.891C30.9672 98.3439 27.331 91.9935 20.8898 87.0413C18.0326 84.7493 14.7353 83.0187 11.1846 81.9477C10.2105 81.6785 9.2027 81.5385 8.18913 81.5316Z" fill="#231F20"/>
<path d="M11.2972 84.6527L12.8816 86.1009H13.0634C13.5742 86.1924 14.059 86.259 14.5784 86.3839C15.9434 86.735 17.2331 87.3154 18.3878 88.0984C19.1097 88.5693 19.7646 89.1289 20.3357 89.763C20.6946 90.1063 20.9336 90.5484 21.0197 91.0281C21.0373 91.1978 21.0003 91.3687 20.9136 91.5176C20.8269 91.6665 20.6946 91.7861 20.5348 91.8603C20.2838 92.0268 20.0067 92.1766 19.7297 92.3431L22.7079 95.0647C23.2187 94.7151 22.9936 94.1242 22.2923 93.4001L24.1191 93.1005C24.6747 93.5641 25.1281 94.1301 25.4523 94.765C25.59 95.0037 25.6496 95.2767 25.6233 95.5484C25.5971 95.8202 25.4862 96.0779 25.3051 96.2881C25.1233 96.4796 24.8723 96.646 24.6472 96.8374L25.7294 97.8279L23.9979 98.3522L22.8897 97.3451C22.3529 97.3451 21.8508 97.3451 21.2967 97.3451C20.2286 97.247 19.1876 96.9651 18.2233 96.5129C16.9151 95.9573 15.7371 95.1533 14.7602 94.1491C13.7646 93.1005 13.5482 92.2765 14.1629 91.7189C14.5734 91.3794 15.0502 91.1219 15.5654 90.9615L15.7732 90.8866L12.7517 88.14H12.6651C12.5966 88.3172 12.5501 88.5016 12.5266 88.6893C12.6249 89.0653 12.8465 89.4009 13.1586 89.6464L10.3276 89.8129C10.1025 89.5799 9.87737 89.3552 9.67825 89.1304C8.95102 88.2981 8.67398 87.6073 8.89908 87.0663C9.04723 86.805 9.26114 86.5835 9.52126 86.4221C9.78139 86.2608 10.0794 86.1646 10.3882 86.1425C10.4834 86.1425 10.4834 86.0926 10.3882 86.001C9.84275 85.5183 9.30598 85.0272 8.76921 84.5362L11.2972 84.6527ZM18.1367 93.0588C17.8683 93.2669 17.522 93.425 17.5913 93.8162C17.6605 94.2074 18.6042 95.0231 19.4786 95.306C19.9087 95.4538 20.3641 95.5216 20.8205 95.5058L18.1367 93.0588ZM17.4441 90.2707C17.6778 90.1458 17.9116 90.0459 17.9462 89.8212C18.0068 89.4051 17.0805 88.6144 16.1281 88.2815C15.7212 88.1317 15.3316 88.0484 14.8814 87.9236L17.4441 90.2707Z" fill="#D1D3D4"/>
<path d="M57.3294 143.404L59.4505 148.306C61.0089 151.536 55.9269 156.987 48.1005 160.499C40.274 164.012 32.6554 164.228 31.0884 161.007L28.9673 156.097L57.3294 143.404Z" fill="white"/>
<path d="M36.7677 163.712C33.7463 163.712 31.5126 162.88 30.7075 161.215L28.5777 156.296C28.5357 156.197 28.5347 156.085 28.5749 155.985C28.6151 155.884 28.6934 155.802 28.7941 155.755L57.1563 143.063C57.2094 143.04 57.267 143.028 57.3251 143.028C57.3833 143.028 57.4408 143.04 57.4939 143.063C57.5485 143.084 57.598 143.116 57.6396 143.156C57.6813 143.196 57.7142 143.243 57.7364 143.296L59.8575 148.198C61.537 151.669 56.4637 157.262 48.291 160.924C44.6944 162.616 40.7691 163.566 36.7677 163.712ZM29.53 156.305L31.4866 160.841C32.9151 163.787 40.4385 163.462 47.936 160.117C55.4334 156.771 60.5068 151.444 59.0696 148.464L57.1217 143.945L29.53 156.305Z" fill="#231F20"/>
<path d="M45.9722 155.595C53.8047 152.089 58.8877 146.632 57.3254 143.407C55.7631 140.181 48.1471 140.409 40.3147 143.916C32.4822 147.422 27.3992 152.879 28.9615 156.104C30.5238 159.33 38.1397 159.102 45.9722 155.595Z" fill="white"/>
<path d="M34.6207 158.793C31.504 158.793 29.3655 157.911 28.5604 156.296C26.8289 152.817 31.9455 147.216 40.1182 143.562C48.291 139.909 56.0135 139.767 57.7017 143.254C59.3899 146.742 54.3166 152.335 46.1439 155.997C42.6924 157.615 38.9459 158.57 35.1142 158.81L34.6207 158.793ZM51.702 141.598C47.8113 141.752 43.9963 142.681 40.4992 144.328C33.0277 147.657 27.9284 153 29.3569 155.98C30.0322 157.362 32.1446 158.094 35.1055 158.011C38.8214 157.779 42.454 156.848 45.7976 155.273C53.2691 151.943 58.3684 146.6 56.9312 143.621C56.2732 142.222 54.3339 141.598 51.702 141.598Z" fill="#231F20"/>
<path d="M33.9886 151.486L36.0405 150.762L36.153 150.62C36.4647 150.221 36.7331 149.788 37.0881 149.438C38.0241 148.427 39.1376 147.582 40.3779 146.941C41.1403 146.53 41.9552 146.217 42.802 146.009C43.2832 145.859 43.8014 145.859 44.2825 146.009C44.4406 146.072 44.5759 146.178 44.6715 146.314C44.767 146.45 44.8184 146.611 44.8193 146.775C44.8193 147.066 44.8799 147.374 44.9058 147.682L48.7671 146.325C48.6632 145.726 48.0226 145.66 47.0356 145.943L47.5637 144.278C48.2531 144.007 48.9919 143.871 49.7367 143.879C50.0239 143.865 50.3081 143.938 50.5501 144.088C50.7921 144.237 50.9799 144.455 51.0873 144.711C51.1809 144.983 51.2561 145.261 51.3124 145.543L52.715 145.052L52.4379 146.775L51.0094 147.291C50.767 147.749 50.5592 148.19 50.2822 148.656C49.7262 149.534 49.0107 150.309 48.1697 150.945C47.0779 151.827 45.8073 152.482 44.4383 152.867C43.0185 153.267 42.1614 153.084 41.9103 152.31C41.7755 151.807 41.746 151.284 41.8237 150.77C41.8237 150.695 41.8237 150.62 41.8237 150.553L37.9278 151.943L37.8586 152.002C37.9906 152.141 38.1421 152.261 38.3088 152.36C38.7011 152.446 39.1119 152.405 39.4775 152.243L38.378 154.74C38.0577 154.831 37.7547 154.923 37.4603 154.99C36.3608 155.256 35.5903 155.189 35.1834 154.748C35.01 154.508 34.9011 154.23 34.8664 153.94C34.8316 153.65 34.8721 153.355 34.9843 153.084C34.9843 153 34.9843 152.984 34.8458 153.034L32.7593 153.774L33.9886 151.486ZM44.8625 149.322C44.9405 149.646 44.9318 150.013 45.3214 150.154C45.7427 150.149 46.1586 150.061 46.5429 149.895C46.9272 149.729 47.2718 149.488 47.555 149.189C47.8834 148.882 48.1479 148.517 48.3342 148.115L44.8625 149.322ZM41.9536 148.681C41.9536 148.431 41.9536 148.173 41.7545 148.048C41.3995 147.815 40.2567 148.256 39.5122 148.931C39.2005 149.214 38.9494 149.513 38.6464 149.846L41.9536 148.681Z" fill="#D1D3D4"/>
<path d="M36.5946 112.776C33.5125 117.711 36.9669 128.648 36.9669 128.648L41.5294 131.844C43.1558 132.784 44.9589 133.407 46.8359 133.678C48.7129 133.949 50.6269 133.861 52.4687 133.421C54.3105 132.98 56.044 132.195 57.5702 131.111C59.0965 130.026 60.3855 128.663 61.3639 127.1C62.3422 125.536 62.9906 123.803 63.2721 121.998C63.5535 120.194 63.4626 118.354 63.0043 116.583C62.5461 114.813 61.7296 113.146 60.6014 111.679C59.4732 110.212 58.0554 108.972 56.4291 108.032L51.3731 105.643C51.3731 105.643 39.6767 107.849 36.5946 112.776Z" fill="white"/>
<path d="M48.9489 134.249C46.2576 134.244 43.6182 133.537 41.3129 132.201L36.7071 128.989C36.6326 128.934 36.5781 128.859 36.5513 128.772C36.4041 128.315 33.0883 117.595 36.2223 112.559C39.3737 107.566 50.7843 105.327 51.2691 105.235C51.3568 105.211 51.4498 105.211 51.5375 105.235L56.6108 107.624C59.4039 109.234 61.5706 111.681 62.7791 114.588C63.9876 117.496 64.1712 120.704 63.3017 123.722C62.4323 126.739 60.5578 129.399 57.9655 131.295C55.3731 133.19 52.2058 134.216 48.9489 134.216V134.249ZM37.3391 128.423L41.7891 131.527C44.975 133.357 48.7857 133.897 52.3854 133.03C55.9852 132.162 59.0801 129.958 60.9916 126.9C62.9029 123.837 63.4722 120.171 62.5746 116.705C61.6771 113.24 59.3859 110.258 56.2039 108.415L51.2951 106.109C49.9705 106.375 39.7373 108.606 36.9668 113.017C34.1964 117.462 36.9669 127.149 37.3391 128.398V128.423Z" fill="#231F20"/>
<path d="M45.8322 132.01C53.8124 132.01 60.2817 125.791 60.2817 118.119C60.2817 110.447 53.8124 104.228 45.8322 104.228C37.852 104.228 31.3828 110.447 31.3828 118.119C31.3828 125.791 37.852 132.01 45.8322 132.01Z" fill="white"/>
<path d="M45.8062 132.443C43.5145 132.437 41.2552 131.922 39.2044 130.939C37.1535 129.956 35.3665 128.531 33.9827 126.775C32.5989 125.019 31.6557 122.979 31.2265 120.815C30.7973 118.651 30.8938 116.421 31.5085 114.298C32.1232 112.176 33.2394 110.219 34.7702 108.579C36.301 106.94 38.2049 105.662 40.3336 104.846C42.4624 104.03 44.7583 103.698 47.0426 103.875C49.3269 104.052 51.5377 104.734 53.5028 105.868C56.2965 107.479 58.4629 109.928 59.6695 112.837C60.8762 115.746 61.0564 118.956 60.1826 121.973C59.3087 124.991 57.429 127.649 54.832 129.54C52.2351 131.431 49.0642 132.451 45.8062 132.443ZM45.8582 104.661C42.4671 104.656 39.1891 105.833 36.6318 107.974C34.0745 110.115 32.4113 113.075 31.9505 116.305C31.4897 119.534 32.2624 122.815 34.1256 125.539C35.9887 128.263 38.8159 130.245 42.0831 131.118C45.3503 131.991 48.836 131.696 51.8941 130.287C54.9522 128.879 57.3754 126.452 58.7145 123.457C60.0536 120.462 60.2178 117.101 59.1767 113.999C58.1357 110.896 55.9599 108.262 53.0526 106.584C50.8812 105.323 48.3947 104.653 45.8582 104.644V104.661Z" fill="#231F20"/>
<path d="M37.7287 111.752L39.5295 112.801C39.6507 112.867 39.7113 112.859 39.7979 112.759C40.5048 112.004 41.3979 111.431 42.3952 111.095C43.4358 110.741 44.5747 110.765 45.5985 111.161C45.8755 111.269 46.1439 111.394 46.4642 111.519L44.7846 114.199C44.362 113.96 43.8675 113.866 43.3821 113.933C43.0092 114.026 42.6421 114.14 42.2826 114.274V114.341L45.7456 116.355L45.9967 116.105C46.6001 115.477 47.277 114.919 48.0139 114.44C48.5566 114.065 49.1957 113.838 49.8623 113.785C50.5289 113.733 51.1979 113.855 51.7973 114.141C52.9631 114.598 53.8957 115.476 54.3945 116.588C54.8055 117.491 54.9086 118.496 54.6889 119.459C54.559 120.058 54.3512 120.649 54.1694 121.265L55.52 122.048L53.979 124.544L52.5938 123.712C52.1349 124.128 51.728 124.544 51.2865 124.911C50.4265 125.635 49.3377 126.06 48.1957 126.117C47.2135 126.141 46.2463 125.883 45.4166 125.377L47.0616 122.738C47.5495 122.997 48.1122 123.093 48.663 123.014C49.2137 122.934 49.7219 122.682 50.109 122.297L46.3776 120.15C45.9188 120.558 45.4599 120.982 44.9924 121.382C44.4445 121.888 43.7756 122.256 43.0445 122.455C42.2937 122.636 41.5028 122.583 40.7849 122.306C39.8895 122.005 39.0983 121.472 38.4993 120.766C38.0699 120.254 37.7627 119.658 37.5997 119.019C37.4366 118.38 37.4215 117.715 37.5556 117.07C37.6595 116.546 37.8759 116.038 38.0317 115.531C38.0317 115.472 38.0317 115.414 38.101 115.348L36.231 114.266L37.7287 111.752ZM51.6501 119.792C51.8504 119.356 51.9164 118.873 51.8405 118.402C51.763 118.001 51.535 117.641 51.1999 117.391C50.8648 117.141 50.4458 117.018 50.0225 117.045C49.4234 117.204 48.8813 117.518 48.4555 117.953L51.6501 119.792ZM40.4386 116.688C40.377 117.095 40.348 117.507 40.352 117.919C40.3712 118.142 40.4408 118.359 40.5559 118.553C40.6709 118.748 40.8287 118.916 41.0183 119.046C41.2078 119.176 41.4246 119.264 41.6534 119.306C41.8822 119.347 42.1176 119.34 42.3432 119.284C42.799 119.093 43.2065 118.809 43.538 118.452L40.4386 116.688Z" fill="#D1D3D4"/>
</svg>
