<svg width="24" height="24" viewBox="0 0 24 24" fill="none" xmlns="http://www.w3.org/2000/svg">
<path d="M12 12.95V2.95H21V9.95H15L12 12.95ZM19.95 21C17.8 21 15.7043 20.525 13.663 19.575C11.621 18.625 9.81267 17.3583 8.238 15.775C6.66267 14.1917 5.396 12.379 4.438 10.337C3.47933 8.29566 3 6.2 3 4.05V3.525C3 3.34166 3.01667 3.16666 3.05 3H8.9L9.825 8.025L6.975 10.9C7.675 12.1 8.55433 13.225 9.613 14.275C10.671 15.325 11.8333 16.2333 13.1 17L16 14.1L21 15.1V20.95C20.8333 20.9667 20.6583 20.9793 20.475 20.988C20.2917 20.996 20.1167 21 19.95 21Z" fill="#0093C1"/>
</svg>
