<svg width="24" height="24" viewBox="0 0 24 24" fill="none" xmlns="http://www.w3.org/2000/svg">
<path d="M1.99998 10.96C1.88389 10.8962 1.78187 10.8096 1.70002 10.7054C1.61817 10.6012 1.55818 10.4816 1.52363 10.3537C1.48909 10.2258 1.4807 10.0922 1.49898 9.961C1.51725 9.82978 1.56181 9.7036 1.62998 9.59L3.12999 7C3.23999 6.8 3.40998 6.66 3.59998 6.58L11.43 2.18C11.59 2.06 11.79 2 12 2C12.21 2 12.41 2.06 12.57 2.18L20.47 6.62C20.66 6.72 20.82 6.88 20.91 7.08L22.36 9.6C22.64 10.08 22.47 10.69 22 10.96L21 11.54V16.5C21 16.88 20.79 17.21 20.47 17.38L12.57 21.82C12.41 21.94 12.21 22 12 22C11.79 22 11.59 21.94 11.43 21.82L3.52998 17.38C3.36966 17.2958 3.2355 17.1692 3.14206 17.014C3.04862 16.8589 2.99948 16.6811 2.99998 16.5V10.96C2.69999 11.13 2.31998 11.14 1.99998 10.96ZM12 4.15V10.85L17.96 7.5L12 4.15ZM4.99998 15.91L11 19.29V12.58L4.99998 9.21V15.91ZM19 15.91V12.69L14 15.59C13.67 15.77 13.3 15.76 13 15.6V19.29L19 15.91ZM13.85 13.36L20.13 9.73L19.55 8.72L13.27 12.35L13.85 13.36Z" fill="#0093C1"/>
</svg>
