<svg width="27" height="30" viewBox="0 0 27 30" fill="none" xmlns="http://www.w3.org/2000/svg">
<path d="M6.7545 16.503C6.55559 16.503 6.36482 16.582 6.22417 16.7227C6.08352 16.8633 6.0045 17.0541 6.0045 17.253V21.753C6.0045 21.9519 6.08352 22.1427 6.22417 22.2833C6.36482 22.424 6.55559 22.503 6.7545 22.503C6.95341 22.503 7.14418 22.424 7.28483 22.2833C7.42548 22.1427 7.5045 21.9519 7.5045 21.753V21.003H8.25C8.84674 21.003 9.41903 20.7659 9.84099 20.344C10.2629 19.922 10.5 19.3497 10.5 18.753C10.5 18.1563 10.2629 17.584 9.84099 17.162C9.41903 16.7401 8.84674 16.503 8.25 16.503H6.7545ZM8.25 19.503H7.5045V18.003H8.25C8.44891 18.003 8.63968 18.082 8.78033 18.2227C8.92098 18.3633 9 18.5541 9 18.753C9 18.9519 8.92098 19.1427 8.78033 19.2833C8.63968 19.424 8.44891 19.503 8.25 19.503ZM17.997 17.253C17.997 17.0541 18.076 16.8633 18.2167 16.7227C18.3573 16.582 18.5481 16.503 18.747 16.503H21.0045C21.2034 16.503 21.3942 16.582 21.5348 16.7227C21.6755 16.8633 21.7545 17.0541 21.7545 17.253C21.7545 17.4519 21.6755 17.6427 21.5348 17.7833C21.3942 17.924 21.2034 18.003 21.0045 18.003H19.4955L19.494 19.506H21.0045C21.2034 19.506 21.3942 19.585 21.5348 19.7257C21.6755 19.8663 21.7545 20.0571 21.7545 20.256C21.7545 20.4549 21.6755 20.6457 21.5348 20.7863C21.3942 20.927 21.2034 21.006 21.0045 21.006H19.494L19.497 21.7515C19.4972 21.85 19.478 21.9476 19.4405 22.0386C19.403 22.1297 19.3479 22.2125 19.2784 22.2823C19.138 22.4232 18.9474 22.5026 18.7485 22.503C18.5496 22.5034 18.3587 22.4248 18.2177 22.2844C18.0768 22.144 17.9974 21.9534 17.997 21.7545L17.9925 20.2575V20.2545L17.997 17.253ZM12.75 16.503C12.5511 16.503 12.3603 16.582 12.2197 16.7227C12.079 16.8633 12 17.0541 12 17.253V21.753C12 21.9519 12.079 22.1427 12.2197 22.2833C12.3603 22.424 12.5511 22.503 12.75 22.503H13.497C14.2926 22.503 15.0557 22.1869 15.6183 21.6243C16.1809 21.0617 16.497 20.2986 16.497 19.503C16.497 18.7074 16.1809 17.9443 15.6183 17.3817C15.0557 16.8191 14.2926 16.503 13.497 16.503H12.75ZM13.5 21.003V18.003C13.8978 18.003 14.2794 18.161 14.5607 18.4423C14.842 18.7236 15 19.1052 15 19.503C15 19.9008 14.842 20.2824 14.5607 20.5637C14.2794 20.845 13.8978 21.003 13.5 21.003ZM25.5 27V25.254C26.3865 24.8325 27 23.928 27 22.881V16.125C27 15.078 26.3865 14.175 25.5 13.752V11.742C25.4998 10.9464 25.1836 10.1835 24.621 9.621L15.8775 0.879C15.8543 0.857441 15.8298 0.837399 15.804 0.819C15.7854 0.804675 15.7674 0.789665 15.75 0.774C15.6468 0.676606 15.537 0.586395 15.4215 0.504C15.3831 0.479223 15.343 0.457169 15.3015 0.438L15.2295 0.402L15.1545 0.3585C15.0735 0.312 14.991 0.264 14.9055 0.228C14.6068 0.108695 14.2907 0.0387816 13.9695 0.0209999C13.9398 0.0190684 13.9103 0.0155635 13.881 0.0105C13.8403 0.00421216 13.7992 0.000704092 13.758 0H4.5C3.70435 0 2.94129 0.31607 2.37868 0.87868C1.81607 1.44129 1.5 2.20435 1.5 3V13.752C0.6135 14.1735 0 15.078 0 16.125V22.881C0 23.928 0.6135 24.831 1.5 25.254V27C1.5 27.7956 1.81607 28.5587 2.37868 29.1213C2.94129 29.6839 3.70435 30 4.5 30H22.5C23.2956 30 24.0587 29.6839 24.6213 29.1213C25.1839 28.5587 25.5 27.7956 25.5 27ZM22.5 27.75H4.5C4.30109 27.75 4.11032 27.671 3.96967 27.5303C3.82902 27.3897 3.75 27.1989 3.75 27V25.506H23.25V27C23.25 27.1989 23.171 27.3897 23.0303 27.5303C22.8897 27.671 22.6989 27.75 22.5 27.75ZM23.25 12V13.5H3.75V3C3.75 2.80109 3.82902 2.61032 3.96967 2.46967C4.11032 2.32902 4.30109 2.25 4.5 2.25H13.5V9C13.5 9.79565 13.8161 10.5587 14.3787 11.1213C14.9413 11.6839 15.7044 12 16.5 12H23.25ZM21.567 9.75H16.5C16.3011 9.75 16.1103 9.67098 15.9697 9.53033C15.829 9.38968 15.75 9.19891 15.75 9V3.9315L21.567 9.75ZM2.625 15.75H24.375C24.4745 15.75 24.5698 15.7895 24.6402 15.8598C24.7105 15.9302 24.75 16.0255 24.75 16.125V22.881C24.75 22.9805 24.7105 23.0758 24.6402 23.1462C24.5698 23.2165 24.4745 23.256 24.375 23.256H2.625C2.52554 23.256 2.43016 23.2165 2.35983 23.1462C2.28951 23.0758 2.25 22.9805 2.25 22.881V16.125C2.25 16.0255 2.28951 15.9302 2.35983 15.8598C2.43016 15.7895 2.52554 15.75 2.625 15.75Z" fill="#0093C1"/>
</svg>
