<svg width="19" height="20" viewBox="0 0 19 20" fill="none" xmlns="http://www.w3.org/2000/svg">
<g clip-path="url(#clip0_129_24)">
<path d="M5.38935 0C5.56572 0 5.73486 0.0737498 5.85958 0.205025C5.98429 0.336301 6.05435 0.514348 6.05435 0.7V2.009H13.1955V0.709C13.1955 0.523348 13.2656 0.345301 13.3903 0.214025C13.515 0.0827498 13.6841 0.009 13.8605 0.009C14.0369 0.009 14.206 0.0827498 14.3307 0.214025C14.4554 0.345301 14.5255 0.523348 14.5255 0.709V2.009H17.1C17.6037 2.009 18.0869 2.21958 18.4432 2.59443C18.7995 2.96929 18.9997 3.47774 19 4.008V18.001C18.9997 18.5313 18.7995 19.0397 18.4432 19.4146C18.0869 19.7894 17.6037 20 17.1 20H1.9C1.39625 20 0.913125 19.7894 0.556833 19.4146C0.200541 19.0397 0.000251873 18.5313 0 18.001L0 4.008C0.000251873 3.47774 0.200541 2.96929 0.556833 2.59443C0.913125 2.21958 1.39625 2.009 1.9 2.009H4.72435V0.699C4.7246 0.513522 4.79478 0.335731 4.91946 0.204672C5.04414 0.0736123 5.21315 -1.89263e-07 5.38935 0ZM1.33 7.742V18.001C1.33 18.0798 1.34474 18.1578 1.37339 18.2306C1.40203 18.3034 1.44402 18.3695 1.49695 18.4253C1.54988 18.481 1.61271 18.5252 1.68187 18.5553C1.75103 18.5855 1.82515 18.601 1.9 18.601H17.1C17.1749 18.601 17.249 18.5855 17.3181 18.5553C17.3873 18.5252 17.4501 18.481 17.5031 18.4253C17.556 18.3695 17.598 18.3034 17.6266 18.2306C17.6553 18.1578 17.67 18.0798 17.67 18.001V7.756L1.33 7.742ZM6.33365 14.619V16.285H4.75V14.619H6.33365ZM10.2914 14.619V16.285H8.70865V14.619H10.2914ZM14.25 14.619V16.285H12.6664V14.619H14.25ZM6.33365 10.642V12.308H4.75V10.642H6.33365ZM10.2914 10.642V12.308H8.70865V10.642H10.2914ZM14.25 10.642V12.308H12.6664V10.642H14.25ZM4.72435 3.408H1.9C1.82515 3.408 1.75103 3.42352 1.68187 3.45367C1.61271 3.48382 1.54988 3.52802 1.49695 3.58374C1.44402 3.63945 1.40203 3.70559 1.37339 3.77839C1.34474 3.85119 1.33 3.92921 1.33 4.008V6.343L17.67 6.357V4.008C17.67 3.92921 17.6553 3.85119 17.6266 3.77839C17.598 3.70559 17.556 3.63945 17.5031 3.58374C17.4501 3.52802 17.3873 3.48382 17.3181 3.45367C17.249 3.42352 17.1749 3.408 17.1 3.408H14.5255V4.337C14.5255 4.52265 14.4554 4.7007 14.3307 4.83197C14.206 4.96325 14.0369 5.037 13.8605 5.037C13.6841 5.037 13.515 4.96325 13.3903 4.83197C13.2656 4.7007 13.1955 4.52265 13.1955 4.337V3.408H6.05435V4.328C6.05435 4.51365 5.98429 4.6917 5.85958 4.82297C5.73486 4.95425 5.56572 5.028 5.38935 5.028C5.21298 5.028 5.04384 4.95425 4.91912 4.82297C4.79441 4.6917 4.72435 4.51365 4.72435 4.328V3.408Z" fill="#0093C1"/>
</g>
<defs>
<clipPath id="clip0_129_24">
<rect width="19" height="20" fill="white"/>
</clipPath>
</defs>
</svg>
